<?xml version="1.0" encoding="utf-8"?>
<svg width="28" height="22" viewBox="0 0 28 22" fill="none" xmlns="http://www.w3.org/2000/svg">
<path d="M14.0001 3.5C14.9666 3.5 15.7501 2.7165 15.7501 1.75C15.7501 0.783502 14.9666 0 14.0001 0C13.0336 0 12.2501 0.783502 12.2501 1.75C12.2501 2.7165 13.0336 3.5 14.0001 3.5Z" fill="#0A7CFF"/>
<path d="M23.8995 6.57541C23.2161 7.25883 22.1081 7.25883 21.4247 6.57541C20.7413 5.89199 20.7413 4.78395 21.4247 4.10053C22.1081 3.41712 23.2161 3.41712 23.8995 4.10053C24.583 4.78395 24.583 5.89199 23.8995 6.57541Z" fill="#0A7CFF"/>
<path d="M0 14C0 14.9665 0.783502 15.75 1.75 15.75C2.7165 15.75 3.5 14.9665 3.5 14C3.5 13.0335 2.7165 12.25 1.75 12.25C0.783502 12.25 0 13.0335 0 14Z" fill="#0A7CFF"/>
<path d="M24.5 14.0001C24.5 14.9666 25.2835 15.7501 26.25 15.7501C27.2165 15.7501 28 14.9666 28 14.0001C28 13.0336 27.2165 12.2501 26.25 12.2501C25.2835 12.2501 24.5 13.0336 24.5 14.0001Z" fill="#0A7CFF"/>
<path d="M6.57541 4.10045C7.25883 4.78387 7.25883 5.89191 6.57541 6.57533C5.89199 7.25874 4.78395 7.25875 4.10053 6.57533C3.41712 5.89191 3.41712 4.78387 4.10053 4.10045C4.78395 3.41704 5.89199 3.41704 6.57541 4.10045Z" fill="#0A7CFF"/>
<path d="M22 14.0001C22 18.4183 18.4183 22.0001 14 22.0001C9.58172 22.0001 6 18.4183 6 14.0001C6 12.5573 6.3819 11.2038 7.05013 10.0351C7.34873 9.5128 8.05597 9.47021 8.48137 9.89561L13.2929 14.7071C13.6834 15.0977 14.3166 15.0977 14.7071 14.7071C15.0976 14.3166 15.0976 13.6835 14.7071 13.2929L9.89559 8.48141C9.47019 8.05601 9.51277 7.34877 10.035 7.05017C11.2038 6.38195 12.5573 6.00006 14 6.00006C18.4183 6.00006 22 9.58178 22 14.0001Z" fill="#0A7CFF"/>
</svg>
