<?xml version="1.0" encoding="utf-8"?>
<svg width="30" height="18" viewBox="0 0 30 18" fill="none" xmlns="http://www.w3.org/2000/svg">
<path d="M7.5 5C7.77614 5 8 4.77614 8 4.5V1.96372C8 0.355648 9.76884 -0.568316 11.02 0.386202L20.2298 7.41232C21.2559 8.19511 21.2569 9.78149 20.2319 10.5657L11.0221 17.6122C9.77126 18.5692 8 17.6456 8 16.0363V13.5C8 13.2239 7.77614 13 7.5 13H2C0.895431 13 0 12.1046 0 11V7C0 5.89543 0.895431 5 2 5H7.5Z" fill="#0A7CFF"/>
<path d="M17.3809 15.2653C17.1408 15.449 17 15.734 17 16.0363C17 17.6456 18.7713 18.5692 20.0221 17.6122L29.2319 10.5657C30.2569 9.78149 30.2559 8.19511 29.2298 7.41232L20.02 0.386202C18.7688 -0.568316 17 0.355648 17 1.96372C17 2.2593 17.1379 2.53796 17.3729 2.71724L21.4429 5.82221C23.5173 7.40482 23.5193 10.5688 21.4472 12.1542L17.3809 15.2653Z" fill="#0A7CFF"/>
</svg>
