<?xml version="1.0" encoding="utf-8"?>
<svg width="30" height="21" viewBox="0 0 30 21" fill="none" xmlns="http://www.w3.org/2000/svg">
<path d="M15 11C12.4456 11 10.25 9.20663 10.25 5.30518C10.25 2.12307 12.2503 0 15 0C17.7497 0 19.75 2.12307 19.75 5.30518C19.75 9.20663 17.5544 11 15 11Z" fill="#0A7CFF"/>
<path d="M22.94 21C23.63 21 24 20.405 24 19.665C24 15.985 19.835 13 15 13C10.165 13 6 15.985 6 19.665C6 20.405 6.37 21 7.06 21H22.94Z" fill="#0A7CFF"/>
<path d="M26 12C24.1178 12 22.5 10.6957 22.5 7.85831C22.5 5.54405 23.9739 4 26 4C28.0261 4 29.5 5.54405 29.5 7.85831C29.5 10.6957 27.8822 12 26 12Z" fill="#0A7CFF"/>
<path d="M26.9768 20C26.475 20 26.051 19.6282 25.9854 19.1307L25.9681 19C25.8056 17.3126 25.0332 15.8244 23.9309 14.6211C23.6924 14.3607 23.7604 13.9355 24.0948 13.8219C24.7078 13.6138 25.3523 13.5 26 13.5C26.0001 13.5 25.9999 13.5 26 13.5C27.9997 13.5 30 14.5 30 16.5C30 20 27.5 20 27.5 20H26.9768Z" fill="#0A7CFF"/>
<path d="M0.5 7.85831C0.5 10.6957 2.11778 12 4 12C5.88222 12 7.5 10.6957 7.5 7.85831C7.5 5.54405 6.02611 4 4 4C1.97389 4 0.5 5.54405 0.5 7.85831Z" fill="#0A7CFF"/>
<path d="M3.0232 20H2.5C2.5 20 0 20 0 16.5C0 14.5 2 13.5 3.99976 13.5C4.6475 13.5 5.29217 13.6138 5.90523 13.8219C6.23962 13.9355 6.3076 14.3607 6.06907 14.6211C4.96681 15.8244 4.19441 17.3126 4.03186 19L4.01462 19.1307C3.94903 19.6282 3.52496 20 3.0232 20Z" fill="#0A7CFF"/>
</svg>
