<?xml version="1.0" encoding="utf-8"?>
<svg width="24" height="23" viewBox="0 0 24 23" fill="none" xmlns="http://www.w3.org/2000/svg">
<path d="M0.705055 21.4104C0.514069 20.9431 0.792369 20.4399 1.14933 20.083L20.8673 0.366117C21.3554 -0.122039 22.1469 -0.122039 22.635 0.366116C23.1232 0.854272 23.1232 1.64573 22.635 2.13388L20.8175 3.95139C20.4778 4.29111 20.4327 4.82187 20.6687 5.24031C21.5253 6.75883 22.0004 8.54235 22.0007 10.5018V10.5037C21.9998 16.6066 17.3937 21.0743 11.0005 21.0743C9.93527 21.0743 8.92046 20.9794 7.96844 20.7469C7.17685 20.5538 6.35042 20.5736 5.57854 20.8368L1.91027 21.9625C1.54926 22.0608 0.952602 22.0161 0.705055 21.4104Z" fill="#0A7CFF"/>
<path d="M15.184 0.696802C13.913 0.24399 12.506 2.10106e-06 10.9998 2.10106e-06C4.607 2.10106e-06 0.000916724 4.39572 0 10.4982V10.5C0.000370082 12.1887 0.269963 13.7455 0.883811 15.115C1.17685 15.6646 1.91752 15.7748 2.35791 15.3344L15.476 2.21634C15.9573 1.73507 15.8251 0.92522 15.184 0.696802Z" fill="#0A7CFF"/>
</svg>
